<svg
        
        width="20"
        height="13"
        viewBox="0 0 20 13"
        fill="none"
        xmlns="http://www.w3.org/2000/svg"
      >
        <path
          fill-rule="evenodd"
          clip-rule="evenodd"
          d="M10 0.333332C5.83333 0.333332 2.275 2.925 0.833334 6.58333C2.275 10.2417 5.83333 12.8333 10 12.8333C14.1667 12.8333 17.725 10.2417 19.1667 6.58333C17.725 2.925 14.1667 0.333332 10 0.333332ZM10 10.75C7.7 10.75 5.83333 8.88333 5.83333 6.58333C5.83333 4.28333 7.7 2.41667 10 2.41667C12.3 2.41667 14.1667 4.28333 14.1667 6.58333C14.1667 8.88333 12.3 10.75 10 10.75ZM10 4.08333C8.61667 4.08333 7.5 5.2 7.5 6.58333C7.5 7.96667 8.61667 9.08333 10 9.08333C11.3833 9.08333 12.5 7.96667 12.5 6.58333C12.5 5.2 11.3833 4.08333 10 4.08333Z"
          fill="#181C43"
        />
      </svg>